<svg width="93" height="26" viewBox="0 0 93 26" fill="none" xmlns="http://www.w3.org/2000/svg">
<rect x="0.763672" y="0.674805" width="91.677" height="25" rx="4" fill="black"/>
<g clip-path="url(#clip0_1331_547)">
<path d="M21.1877 7.6748H19.5192V16.1359H21.1877V7.6748Z" fill="white"/>
<path d="M17.6026 8.14826H15.934V16.6092H17.6026V8.14826Z" fill="white"/>
<path d="M14.0174 8.67682H12.3489V17.1393H14.0174V8.67682Z" fill="white"/>
<path d="M10.4322 9.21126H8.76367L8.76368 17.6748H10.4322L10.4322 9.21126Z" fill="white"/>
<path d="M65.256 12.1828L62.5694 9.19575H60.9989V16.1117H62.6387V11.6992L65.0914 14.3135H65.3945L67.8051 11.6992V16.1117H69.4449V9.19575H67.8743L65.256 12.1828Z" fill="white"/>
<path d="M77.2573 9.19575L73.1929 13.6909V9.19575H71.5531V16.1117H73.0554L77.1199 11.6166V16.1117H78.7597V9.19575H77.2573Z" fill="white"/>
<path d="M52.1663 11.7264C52.1663 12.8275 52.7684 13.6949 53.6927 14.0586L51.9596 16.1117H53.9667L55.5433 14.2439H57.2494V16.1117H58.8892V9.19575H54.7143C53.1578 9.19575 52.1663 10.2606 52.1663 11.7264ZM57.2504 10.719V12.764H55.0184C54.2738 12.764 53.8744 12.349 53.8744 11.7405C53.8744 11.132 54.2878 10.717 55.0184 10.717L57.2504 10.719Z" fill="white"/>
<path d="M44.5461 10.5789C44.4457 12.9575 43.9439 14.4928 42.9615 14.4928H42.7156V16.153L42.9775 16.1671C44.9475 16.2769 46.0364 14.5482 46.215 10.7724H48.8062V16.1117H50.4431V9.19575H44.6013L44.5461 10.5789Z" fill="white"/>
<path d="M38.3732 9.09912C36.1553 9.09912 34.5597 10.6344 34.5597 12.6533C34.5597 14.7417 36.2958 16.2226 38.3732 16.2226C40.5369 16.2226 42.2179 14.6591 42.2179 12.6533C42.2179 10.6475 40.5369 9.09912 38.3732 9.09912ZM38.3732 14.5624C37.1198 14.5624 36.2657 13.7464 36.2657 12.6533C36.2657 11.5331 37.1208 10.7392 38.3732 10.7392C39.6257 10.7392 40.5088 11.5693 40.5088 12.6533C40.5088 13.7373 39.6136 14.5624 38.3732 14.5624Z" fill="white"/>
<path d="M32.8205 9.20879H27.0329L26.9777 10.592C26.8954 12.5847 26.3756 14.4796 25.3931 14.5068L24.9385 14.5209V17.6749L26.5924 17.6716V16.1127H32.3378V17.6716H34.0057V14.5068H32.8205V9.20879ZM31.1807 14.5068H27.6812C28.2733 13.6082 28.5905 12.3076 28.6457 10.7864H31.1807V14.5068Z" fill="white"/>
</g>
<defs>
<clipPath id="clip0_1331_547">
<rect width="70" height="10" fill="white" transform="translate(8.76367 7.6748)"/>
</clipPath>
</defs>
</svg>
