<svg width="115" height="37" viewBox="0 0 115 37" fill="none" xmlns="http://www.w3.org/2000/svg">
<path d="M13.7443 0.942871C10.2144 0.942871 7.13698 2.38902 5.10048 5.04806V1.64262H0.348633V36.7234H5.55304V24.0812C7.6348 26.5537 10.5312 27.9065 13.6991 27.9065C20.7589 27.9065 26.0991 21.9353 26.0991 14.378C26.0991 6.77411 20.8042 0.942871 13.7443 0.942871ZM12.975 22.9616C8.26838 22.9616 4.8742 19.2296 4.8742 14.4247C4.8742 9.47981 8.26838 5.88776 12.975 5.88776C17.5005 5.88776 20.8042 9.47981 20.8042 14.378C20.8042 19.2763 17.5005 22.9616 12.975 22.9616Z" fill="#0050B9"/>
<path d="M45.0824 27.9065C52.7759 27.9065 56.9847 23.0549 56.9847 15.2177V1.64262H51.554V15.5443C51.554 20.0227 49.608 22.9616 45.0824 22.9616C40.6474 22.9616 38.6109 19.976 38.6109 15.5443V1.64262H33.1802V15.1711C33.1802 23.0083 37.4795 27.9065 45.0824 27.9065Z" fill="#0050B9"/>
<path d="M77.5658 27.9065C85.2592 27.9065 89.468 23.0549 89.468 15.2177V1.64262H84.0373V15.5443C84.0373 20.0227 82.0913 22.9616 77.5658 22.9616C73.1307 22.9616 71.0942 19.976 71.0942 15.5443V1.64262H65.6635V15.1711C65.6635 23.0083 69.9628 27.9065 77.5658 27.9065Z" fill="#0050B9"/>
<path d="M112.221 0.942871C108.103 0.942871 104.89 3.18207 103.532 5.79446V1.64262H98.3731V27.1601H103.804V14.0048C103.804 8.92001 107.153 6.30761 111.452 6.30761C112.81 6.30761 113.941 6.58751 114.846 6.96071V1.31607C114.213 1.12947 113.126 0.942871 112.221 0.942871Z" fill="#0050B9"/>
</svg>
