<svg width="29" height="13" viewBox="0 0 29 13" fill="none" xmlns="http://www.w3.org/2000/svg">
<path fill-rule="evenodd" clip-rule="evenodd" d="M18.5999 0.299872C18.3513 -0.0314428 17.8812 -0.0984939 17.5499 0.150109C17.2185 0.398712 17.1515 0.868828 17.4001 1.20014C18.8098 3.07885 20.6665 4.54843 22.7791 5.49075L0.75 5.49075C0.335787 5.49075 0 5.82654 0 6.24075C0 6.65497 0.335787 6.99075 0.75 6.99075L22.7193 6.99075C20.6484 7.98152 18.8239 9.44972 17.4056 11.2926C17.153 11.6209 17.2143 12.0918 17.5426 12.3444C17.8709 12.597 18.3417 12.5357 18.5944 12.2074C20.4606 9.78241 23.1101 8.07976 26.0913 7.38976L27.9563 6.9581C28.8538 6.75036 28.8228 5.46193 27.9164 5.29757L26.1841 4.98346C23.1559 4.43438 20.447 2.7615 18.5999 0.299872Z" fill="#7CABF3"/>
</svg>
